<svg width="47" height="42" viewBox="0 0 47 42" fill="none" xmlns="http://www.w3.org/2000/svg">
<path fill-rule="evenodd" clip-rule="evenodd" d="M0 21L23.5 33L46.5 21L23.5 9L0 21ZM3.29832 21L23.4926 31.312L43.2572 21L23.4926 10.688L3.29832 21Z" fill="#1E2739"/>
<path fill-rule="evenodd" clip-rule="evenodd" d="M0 12L23.5 0L46.5 12L29.25 21L46.5 30L23.5 42L0 30L17.625 21L0 12ZM19.2742 21.8421L3.29832 30L23.4926 40.312L43.2572 30L27.6286 21.8459L23.5 24L19.2742 21.8421ZM26.0072 21L23.4926 22.312L20.9233 21L23.4926 19.688L26.0072 21ZM27.6286 20.1541L23.5 18L19.2742 20.1579L3.29832 12L23.4926 1.68803L43.2572 12L27.6286 20.1541Z" fill="#29AA00"/>
</svg>
