<svg width="48" height="40" viewBox="0 0 48 40" fill="none" xmlns="http://www.w3.org/2000/svg">
<path fill-rule="evenodd" clip-rule="evenodd" d="M0 3C0 1.34315 1.34315 0 3 0H45C46.6569 0 48 1.34315 48 3V37C48 38.6569 46.6569 40 45 40H3C1.34315 40 0 38.6569 0 37V3ZM3 1.5H45C46 1.5 46.5 2 46.5 3V8H1.5V3C1.5 2 2 1.5 3 1.5ZM1.5 11V37C1.5 38 2 38.5 3 38.5H45C46 38.5 46.5 38 46.5 37V11H1.5Z" fill="#29AA00"/>
<path fill-rule="evenodd" clip-rule="evenodd" d="M39 16H8V22H39V16ZM6 14V24H41V14H6Z" fill="#1E2739"/>
<rect x="10" y="29" width="13" height="6" fill="#1C452B"/>
<rect x="26" y="29" width="13" height="6" fill="#1C452B"/>
</svg>
