<svg width="320" height="352" viewBox="0 0 320 352" fill="none" xmlns="http://www.w3.org/2000/svg">
<path opacity="0.4" d="M30.5 269.691V106.812L159.5 171.808V334.191L30.5 269.691Z" stroke="#29AA00"/>
<path d="M288.5 269.691V106.812L159.5 171.808V334.191L288.5 269.691Z" stroke="#A5DA94" stroke-linejoin="bevel"/>
<path d="M0 122L130 187.5V351L0 286V122Z" fill="url(#paint0_linear_1_28)"/>
<path d="M319 122L189 187.5V351L319 286V122Z" stroke="#29AA00"/>
<path d="M30.118 65.5017L160.498 0.559451L288.889 65.4983L159.5 130.441L30.118 65.5017Z" stroke="#29AA00"/>
<mask id="path-6-inside-1_1_28" fill="white">
<path d="M160.5 41L289 106V107.002L159.5 172L30 107.002V106L160.5 41Z"/>
</mask>
<path d="M160.5 41L160.951 40.1077L160.054 40.1049L160.5 41ZM289 106H290L289.451 105.108L289 106ZM159.5 172L159.051 172.894H159.949L159.5 172ZM30 106L29.5542 105.105C29.2146 105.274 29 105.621 29 106H30ZM30 107.002H29L29.5514 107.896L30 107.002ZM289 107.002L289.449 107.896L290 107.002H289ZM160.049 41.8923L288.549 106.892L289.451 105.108L160.951 40.1077L160.049 41.8923ZM30.4458 106.895L160.946 41.8951L160.054 40.1049L29.5542 105.105L30.4458 106.895ZM159.949 171.106L30.4486 106.108L29.5514 107.896L159.051 172.894L159.949 171.106ZM31 107.002V106H29V107.002H31ZM288 106V107.002H290V106H288ZM288.551 106.108L159.051 171.106L159.949 172.894L289.449 107.896L288.551 106.108Z" fill="#A5DA94" mask="url(#path-6-inside-1_1_28)"/>
<line x1="159.5" y1="131" x2="159.5" y2="171" stroke="#C4C4C4" stroke-dasharray="3 3"/>
<line x1="289.5" y1="66" x2="289.5" y2="106" stroke="#C4C4C4" stroke-dasharray="3 3"/>
<line x1="288.316" y1="106.653" x2="317.719" y2="121.634" stroke="#C4C4C4" stroke-width="0.6" stroke-dasharray="3 3"/>
<line x1="288.316" y1="269.653" x2="317.719" y2="284.634" stroke="#C4C4C4" stroke-width="0.6" stroke-dasharray="3 3"/>
<line x1="161.136" y1="172.733" x2="189.648" y2="187.26" stroke="#C4C4C4" stroke-width="0.6" stroke-dasharray="3 3"/>
<line x1="161.136" y1="335.733" x2="189.648" y2="350.26" stroke="#C4C4C4" stroke-width="0.6" stroke-dasharray="3 3"/>
<line y1="-0.3" x2="33" y2="-0.3" transform="matrix(-0.891007 0.453991 0.453991 0.891007 159.402 173)" stroke="#C4C4C4" stroke-width="0.6" stroke-dasharray="3 3"/>
<line y1="-0.3" x2="33" y2="-0.3" transform="matrix(-0.891007 0.453991 0.453991 0.891007 159.402 335)" stroke="#C4C4C4" stroke-width="0.6" stroke-dasharray="3 3"/>
<defs>
<linearGradient id="paint0_linear_1_28" x1="65" y1="122" x2="80.5" y2="395" gradientUnits="userSpaceOnUse">
<stop stop-color="#29AA00" stop-opacity="0.28"/>
<stop offset="1" stop-color="#29AA00" stop-opacity="0"/>
</linearGradient>
</defs>
</svg>
